<svg 
xmlns="http://www.w3.org/2000/svg" 
width="785" height="260.841" 
data-name="Layer 1">
<path fill="#fead4c" 
d="M118.968 159.29a52.292 52.292 0 0 1-17.347-2.945l-.415-.145.342-1.599c-10.089-19.76-6.605-46.92 8.899-69.252 14.104-20.317 35.584-35.107 54.534-48.153a14.232 14.232 0 0 1 22.028 14.502l-6.699 33.625c-4.877 24.485-10.676 47.656-27.839 62.061a52.937 52.937 0 0 1-33.503 11.907Z"/><path fill="#3f3d56" d="M106.09 241.404c-3.508-25.553-7.116-51.436-4.65-77.262 2.185-22.937 9.183-45.336 23.43-63.71a105.983 105.983 0 0 1 27.192-24.641c2.718-1.716 5.221 2.592 2.514 4.301a100.756 100.756 0 0 0-39.856 48.086c-8.677 22.069-10.07 46.127-8.575 69.57.903 14.177 2.823 28.262 4.75 42.33a2.58 2.58 0 0 1-1.74 3.063 2.506 2.506 0 0 1-3.064-1.74Z" data-name="abd51855-a673-4ef9-adc8-1347fdb580b5-45"/><path fill="#fead4c" d="M163.443 218.198a39.135 39.135 0 0 1-32.526-17.522l-.243-.369.973-.825c2.927-16.093 17.105-30.463 36.176-36.644 17.33-5.618 36.529-4.7 53.461-3.886a10.608 10.608 0 0 1 6.514 18.548l-18.92 16.705c-13.793 12.183-27.543 23.184-44.066 23.968-.457.016-.915.025-1.37.025Z"/><path fill="#3f3d56" d="M96.176 256.093c16.885-29.877 36.47-63.082 71.466-73.696a79.748 79.748 0 0 1 30.058-3.103c3.192.275 2.395 5.194-.79 4.92a74.089 74.089 0 0 0-47.97 12.691c-13.526 9.207-24.058 22.007-32.971 35.58-5.46 8.315-10.35 16.982-15.242 25.637-1.562 2.767-6.132.769-4.551-2.03Z" data-name="b6a87e1b-685a-4f79-adc0-a59c983b9bff-46"/><path fill="#fead4c" d="M269.826 216.504a22.848 22.848 0 0 1-7.58-1.288l-.416-.145.18-.836c-4.346-8.613-2.821-20.4 3.906-30.09 6.116-8.812 15.41-15.21 23.608-20.855a6.426 6.426 0 0 1 9.948 6.549l-2.891 14.512c-2.116 10.62-4.634 20.672-12.112 26.947a23.131 23.131 0 0 1-14.643 5.206Z"/><path fill="#3f3d56" d="M264.268 251.66c-1.513-11.029-3.071-22.2-2.007-33.346.944-9.9 3.964-19.568 10.113-27.498a45.741 45.741 0 0 1 11.736-10.635c1.173-.74 2.253 1.12 1.085 1.857a43.487 43.487 0 0 0-17.202 20.754c-3.745 9.525-4.346 19.908-3.701 30.026.39 6.12 1.218 12.198 2.05 18.27a1.114 1.114 0 0 1-.75 1.322 1.082 1.082 0 0 1-1.323-.751Z" data-name="ebf62926-f2ef-4574-b3b9-03deb0cc338a-47"/><path fill="#fead4c" d="M289.023 241.928a17.175 17.175 0 0 1-14.277-7.69l-.243-.37.535-.453c1.322-7.007 7.498-13.248 15.787-15.935 7.53-2.44 15.84-2.043 23.175-1.69a4.862 4.862 0 0 1 2.986 8.502l-8.166 7.21c-5.993 5.293-11.97 10.073-19.193 10.415a15.58 15.58 0 0 1-.604.011Z"/><path fill="#3f3d56" d="M259.99 258c7.287-12.895 15.74-27.227 30.844-31.807a34.42 34.42 0 0 1 12.973-1.34c1.378.12 1.034 2.242-.34 2.124a31.977 31.977 0 0 0-20.705 5.477c-5.838 3.974-10.383 9.499-14.23 15.356-2.357 3.59-4.467 7.33-6.578 11.066-.675 1.194-2.647.331-1.965-.876Z" data-name="ab8c1ad0-4924-41ff-9be1-1da9c47377aa-48"/><path fill="#fead4c" d="M691.193 215.537c-8.648 0-15.24-4.67-20.015-14.116-4.577-9.057.17-16.876 6.518-20.309 6.362-3.44 15.523-3.13 20.602 5.673 4.95 8.579 5.518 17.47 1.69 26.431l.188.88-.45.13a31.017 31.017 0 0 1-8.533 1.31Z"/><path fill="#3f3d56" d="M699.732 259.66c4.422-25.014 4.701-56.695-19.843-71.478-1.172-.741-2.252 1.118-1.084 1.856 23.697 14.332 22.993 44.938 18.852 69.05a1.076 1.076 0 0 0 2.074.57Z" data-name="fe56ea42-b5c6-4c01-a160-1e56b0952e49-49"/><path fill="#fead4c" d="M586.91 239.958a21.011 21.011 0 0 1-8.884-2.238c-6.958-3.265-7.714-10.124-5.473-15.115 2.217-4.935 7.788-8.88 14.782-5.878a20.888 20.888 0 0 1 12.613 14.676l.57.482-.28.377c-3.83 5.14-8.234 7.696-13.328 7.696Z"/><path fill="#3f3d56" d="M620.01 258c-8.708-16.672-22.616-35.527-43.818-33.146-1.377.118-1.033 2.241.342 2.123 20.139-2.084 33.242 16.028 41.512 31.899.675 1.194 2.647.331 1.965-.876Z" data-name="bd957783-9dde-42d5-bbc3-75df1df1a96d-50"/><path fill="#cacaca" d="M784 260.841H1a1 1 0 0 1 0-2h783a1 1 0 0 1 0 2ZM596 194.841H335a1 1 0 0 1 0-2h261a1 1 0 0 1 0 2Z"/><path fill="#3f3d56" d="m469.186 26.93-1.718-21.392a2.899 2.899 0 0 0-4.744-1.113c-13.791 3.384-19.356 10.584-20.95 19.627a61.783 61.783 0 0 0-20.14-.906c4.848-6.9 4.514-13.934-.53-21.087a2.899 2.899 0 0 0-4.722-1.305c-9.328 4.714-15.853 10.59-16.904 18.732a62.203 62.203 0 1 0 69.708 7.444Z"/><path fill="#3f3d56" d="M476.953 113.739c50.415-6.467 78.775 75.767-2.557 80.349-4.99 5.475-44.103 10.053-77.25 2.494-29.753 1.192-63.575-37.726-21.867-90.806Z"/><path fill="#3f3d56" d="M426.623 156.172v41.602h19.45l15.432-42.361M496.1 183.744c-.106-.153-.184-.314-.277-.471l-2.485.092Z"/><path fill="#3f3d56" d="M572.736 159.706c-6.209-9.923-21.4-12.68-30.701-5.572-4.197 3.208-7.025 7.845-10.61 11.725a39.306 39.306 0 0 1-22.831 12.082c-6.094.914-12.539.418-18.166 2.927-5.458 2.433-9.575 9.38-6.604 14.405l62.84-2.316c6.027-.222 12.268-.497 17.657-3.204 10.46-5.255 14.624-20.123 8.415-30.047Z"/><path fill="#fff" d="M424.092 130.96a62.39 62.39 0 0 1-25.046-4.997c-16.525-7.173-24.099-19.278-24.413-19.79a.758.758 0 0 1 1.292-.794 55.775 55.775 0 0 0 23.802 19.226c14.88 6.434 40.293 9.657 76.845-11.522a.758.758 0 1 1 .76 1.312c-21.456 12.433-39.172 16.566-53.24 16.566ZM427.381 92.474a5.314 5.314 0 0 1-5.308-5.308.758.758 0 0 1 1.517 0 3.792 3.792 0 0 0 7.583 0 .758.758 0 0 1 1.516 0 5.314 5.314 0 0 1-5.308 5.308Z"/><ellipse cx="427.76" cy="77.687" fill="#fff" rx="6.066" ry="2.333"/><path fill="#fff" d="M386.97 77.858a18.496 18.496 0 0 1 28.39 0 20.558 20.558 0 1 0-29.065-.674q.33.345.674.674ZM442.477 77.858a18.496 18.496 0 0 1 28.39 0 20.558 20.558 0 1 0-29.065-.675q.33.346.675.675Z"/><circle cx="392.152" cy="64.988" r="7.072" fill="#3f3d56"/><circle cx="447.657" cy="64.988" r="7.072" fill="#3f3d56"/><circle cx="457.334" cy="86.627" r="6.197" fill="#ff6584"/><circle cx="401.334" cy="86.627" r="6.197" fill="#ff6584"/><ellipse cx="534.159" cy="499.411" fill="#3f3d56" rx="5.308" ry="15.924" transform="rotate(-31.94 -127.625 702.201)"/><path fill="#3f3d56" d="m360.474 142.389-33.788 35.588 8.81 15.171 31.897-19.06"/><ellipse cx="611.283" cy="525.286" fill="#3f3d56" rx="5.308" ry="15.924" transform="rotate(-81.579 322.463 485.81)"/><path fill="#3f3d56" d="m397.024 155.777 5.237 48.792 17.235 3.579 6.163-37.115"/><ellipse cx="679.97" cy="521.336" fill="#3f3d56" rx="15.924" ry="5.308" transform="rotate(-6.174 -2384.885 2285.089)"/><path fill="#3f3d56" d="m453.303 155.154 17.363 45.897 17.581-.879-3.388-37.471"/>
</svg>