<svg id="visual" viewBox="0 0 1000 350" width="1000" height="350" xmlns="http://www.w3.org/2000/svg" xmlns:xlink="http://www.w3.org/1999/xlink" version="1.1"><path d="M0 263L23.8 261.7C47.7 260.3 95.3 257.7 143 254.3C190.7 251 238.3 247 286 243.7C333.7 240.3 381.3 237.7 428.8 239.5C476.3 241.3 523.7 247.7 571.2 251.5C618.7 255.3 666.3 256.7 714 254.2C761.7 251.7 809.3 245.3 857 247.7C904.7 250 952.3 261 976.2 266.5L1000 272L1000 351L976.2 351C952.3 351 904.7 351 857 351C809.3 351 761.7 351 714 351C666.3 351 618.7 351 571.2 351C523.7 351 476.3 351 428.8 351C381.3 351 333.7 351 286 351C238.3 351 190.7 351 143 351C95.3 351 47.7 351 23.8 351L0 351Z" fill="#ffebcd"></path><path d="M0 258L23.8 263.5C47.7 269 95.3 280 143 281.2C190.7 282.3 238.3 273.7 286 269.3C333.7 265 381.3 265 428.8 269.7C476.3 274.3 523.7 283.7 571.2 282.7C618.7 281.7 666.3 270.3 714 264.8C761.7 259.3 809.3 259.7 857 261.2C904.7 262.7 952.3 265.3 976.2 266.7L1000 268L1000 351L976.2 351C952.3 351 904.7 351 857 351C809.3 351 761.7 351 714 351C666.3 351 618.7 351 571.2 351C523.7 351 476.3 351 428.8 351C381.3 351 333.7 351 286 351C238.3 351 190.7 351 143 351C95.3 351 47.7 351 23.8 351L0 351Z" fill="#ffd7a1"></path><path d="M0 304L23.8 303.8C47.7 303.7 95.3 303.3 143 302.5C190.7 301.7 238.3 300.3 286 297.8C333.7 295.3 381.3 291.7 428.8 294.5C476.3 297.3 523.7 306.7 571.2 306.2C618.7 305.7 666.3 295.3 714 290C761.7 284.7 809.3 284.3 857 288.3C904.7 292.3 952.3 300.7 976.2 304.8L1000 309L1000 351L976.2 351C952.3 351 904.7 351 857 351C809.3 351 761.7 351 714 351C666.3 351 618.7 351 571.2 351C523.7 351 476.3 351 428.8 351C381.3 351 333.7 351 286 351C238.3 351 190.7 351 143 351C95.3 351 47.7 351 23.8 351L0 351Z" fill="#ffc377"></path><path d="M0 313L23.8 315.5C47.7 318 95.3 323 143 322C190.7 321 238.3 314 286 310.8C333.7 307.7 381.3 308.3 428.8 311.2C476.3 314 523.7 319 571.2 319.5C618.7 320 666.3 316 714 315C761.7 314 809.3 316 857 318.5C904.7 321 952.3 324 976.2 325.5L1000 327L1000 351L976.2 351C952.3 351 904.7 351 857 351C809.3 351 761.7 351 714 351C666.3 351 618.7 351 571.2 351C523.7 351 476.3 351 428.8 351C381.3 351 333.7 351 286 351C238.3 351 190.7 351 143 351C95.3 351 47.7 351 23.8 351L0 351Z" fill="#fead4c"></path></svg>